<?xml version="1.0" encoding="UTF-8"?>
<svg width="115px" height="115px" viewBox="0 0 115 115" version="1.1" xmlns="http://www.w3.org/2000/svg" xmlns:xlink="http://www.w3.org/1999/xlink">
    <!-- Generator: Sketch 53 (72520) - https://sketchapp.com -->
    <title>Group 18</title>
    <desc>Created with Sketch.</desc>
    <defs>
        <circle id="path-1" cx="57.5" cy="57.5" r="57.5"></circle>
        <polygon id="path-3" points="0 48 96.29 48 96.29 0.123 0 0.123"></polygon>
    </defs>
    <g id="Page-1" stroke="none" stroke-width="1" fill="none" fill-rule="evenodd">
        <g id="Invites-Landing" transform="translate(-464.000000, -1279.000000)">
            <g id="Group-2" transform="translate(395.000000, 1279.000000)">
                <g id="Group-18" transform="translate(69.000000, 0.000000)">
                    <mask id="mask-2" fill="white">
                        <use xlink:href="#path-1"></use>
                    </mask>
                    <use id="Mask" fill="#FFFFFF" xlink:href="#path-1"></use>
                    <g id="Group-13" mask="url(#mask-2)">
                        <g transform="translate(9.000000, 33.000000)">
                            <polygon id="Fill-1" fill="#F8C4C2" points="87.309 41.099 96.29 41.099 87.309 3.168"></polygon>
                            <polygon id="Fill-2" fill="#F87E7E" points="87.3092 44.7092 18.6932 44.7092 21.8542 3.1672 87.3092 3.1672"></polygon>
                            <g id="Group-12" stroke-width="1" fill="none" transform="translate(0.000000, 0.876800)">
                                <path d="M65.7501,21.6888 C65.6081,18.1908 62.6741,15.1268 58.9351,15.1268 L58.8971,15.1268 C57.4561,15.1348 56.0331,15.6108 54.8911,16.4668 C54.3181,16.8968 53.8281,17.4118 53.4241,17.9958 C53.0251,17.4128 52.5341,16.8968 51.9621,16.4668 C50.8091,15.6028 49.3721,15.1268 47.9161,15.1268 C46.9091,15.1268 45.9301,15.3448 45.0071,15.7758 C41.6181,17.3568 40.1201,21.3408 41.6671,24.6598 C43.5341,28.6628 52.5751,34.1418 52.5751,34.1418 C52.5751,34.1418 54.0661,33.5848 54.9171,33.1638 C57.0671,32.0968 59.1331,30.8648 61.0171,29.3748 C63.4051,27.4848 65.8841,25.0018 65.7501,21.6888" id="Fill-3" fill="#FCD6D3"></path>
                                <path d="M19.3097,22.7279 C18.3287,22.7279 17.5017,23.3629 17.1947,24.2409 L21.4237,24.2409 C21.1177,23.3629 20.2897,22.7279 19.3097,22.7279" id="Fill-5" fill="#FCD6D3"></path>
                                <mask id="mask-4" fill="white">
                                    <use xlink:href="#path-3"></use>
                                </mask>
                                <g id="Clip-8"></g>
                                <path d="M5.131,17.527 L34.095,17.527 L34.095,16.269 L5.131,16.269 L5.131,17.527 Z M15.626,4.963 C16.061,4.76 16.521,4.658 16.995,4.658 C17.681,4.658 18.358,4.882 18.9,5.288 C19.17,5.491 19.401,5.734 19.589,6.008 L19.589,6.007 L19.59,6.008 C19.778,5.733 20.009,5.491 20.278,5.288 C20.816,4.885 21.486,4.661 22.165,4.658 L22.182,4.658 C22.571,4.658 22.955,4.729 23.325,4.869 C23.41,4.901 23.484,4.932 23.552,4.963 C23.848,5.101 24.119,5.282 24.36,5.499 L24.36,5.499 L24.368,5.506 L24.368,5.506 L24.378,5.515 L24.39,5.527 C24.435,5.568 24.477,5.61 24.519,5.653 L24.555,5.691 C24.573,5.71 24.592,5.732 24.61,5.752 L24.647,5.794 C24.665,5.815 24.683,5.836 24.7,5.858 L24.728,5.892 C24.751,5.922 24.768,5.945 24.785,5.967 L24.811,6.003 C24.843,6.047 24.874,6.092 24.903,6.138 L24.931,6.181 C24.944,6.203 24.957,6.224 24.969,6.245 L25.001,6.3 C25.014,6.323 25.027,6.345 25.039,6.369 C25.048,6.386 25.058,6.404 25.067,6.421 C25.081,6.451 25.091,6.47 25.101,6.491 L25.127,6.547 C25.145,6.585 25.162,6.624 25.178,6.664 L25.204,6.73 C25.211,6.747 25.233,6.809 25.233,6.809 L25.251,6.86 C25.258,6.882 25.265,6.905 25.272,6.926 C25.279,6.949 25.285,6.971 25.292,6.994 C25.298,7.019 25.304,7.038 25.31,7.058 C25.316,7.083 25.322,7.11 25.328,7.135 L25.342,7.192 C25.351,7.234 25.359,7.276 25.366,7.319 L25.375,7.374 C25.38,7.404 25.383,7.43 25.387,7.456 C25.389,7.476 25.392,7.496 25.394,7.516 C25.397,7.543 25.399,7.57 25.401,7.597 C25.403,7.618 25.405,7.636 25.406,7.656 C25.408,7.686 25.409,7.716 25.41,7.745 L25.412,7.794 C25.413,7.839 25.412,7.884 25.411,7.929 L25.409,7.97 C25.408,8.003 25.406,8.036 25.404,8.07 L25.4,8.122 C25.397,8.153 25.394,8.183 25.39,8.212 L25.383,8.265 C25.379,8.297 25.374,8.329 25.368,8.362 L25.361,8.406 C25.353,8.452 25.343,8.497 25.332,8.544 L25.327,8.566 C25.318,8.605 25.307,8.644 25.297,8.683 L25.282,8.729 C25.273,8.76 25.263,8.791 25.253,8.823 L25.236,8.871 C25.224,8.904 25.213,8.935 25.2,8.967 L25.183,9.01 C25.165,9.055 25.145,9.1 25.124,9.145 C25.104,9.19 25.082,9.234 25.059,9.278 L25.036,9.32 C25.02,9.351 25.004,9.38 24.987,9.411 L24.96,9.456 C24.942,9.488 24.923,9.519 24.904,9.549 L24.881,9.587 C24.854,9.63 24.825,9.674 24.796,9.716 C24.764,9.764 24.735,9.805 24.705,9.845 L24.681,9.878 C24.657,9.911 24.632,9.943 24.607,9.975 L24.581,10.009 C24.553,10.044 24.525,10.079 24.495,10.115 L24.484,10.128 C24.444,10.177 24.407,10.22 24.369,10.263 L24.361,10.272 L24.36,10.272 C24.074,10.596 23.727,10.923 23.328,11.247 C22.29,12.087 21.104,12.745 20.291,13.148 C19.89,13.347 19.63,13.459 19.603,13.471 L19.607,13.484 L19.589,13.476 L19.572,13.484 L19.576,13.471 C19.539,13.454 19.279,13.342 18.887,13.148 C17.727,12.572 14.933,11.03 14.054,9.145 C13.325,7.583 14.031,5.707 15.626,4.963 L15.626,4.963 Z M38.619,22.122 L38.619,20.886 L38.619,14.885 L38.619,8.121 L38.619,2.241 C38.619,1.071 37.671,0.123 36.501,0.123 L2.117,0.123 C0.948,0.123 0,1.071 0,2.241 L0,8.121 L0,14.885 L0,20.886 L0,22.122 C0,23.292 0.948,24.241 2.117,24.241 L15.075,24.241 L15.75,24.241 C16.091,22.588 17.557,21.342 19.31,21.342 C21.062,21.342 22.527,22.588 22.869,24.241 L23.543,24.241 L36.501,24.241 C37.671,24.241 38.619,23.292 38.619,22.122 L38.619,22.122 Z" id="Fill-7" fill="#FCD6D3" mask="url(#mask-4)"></path>
                                <path d="M14.0538,9.1449 C14.9328,11.0299 17.7268,12.5719 18.8868,13.1479 C19.2788,13.3419 19.5388,13.4549 19.5758,13.4709 L19.5718,13.4839 L19.5888,13.4759 L19.6068,13.4839 L19.6028,13.4709 C19.6298,13.4589 19.8898,13.3469 20.2908,13.1479 C21.1038,12.7449 22.2898,12.0869 23.3278,11.2479 C23.7268,10.9229 24.0738,10.5959 24.3608,10.2719 L24.3608,10.2719 L24.3688,10.2629 C24.4068,10.2199 24.4438,10.1769 24.4848,10.1279 L24.4948,10.1149 C24.5248,10.0799 24.5528,10.0439 24.5808,10.0089 L24.6068,9.9749 C24.6318,9.9429 24.6568,9.9109 24.6808,9.8779 L24.7048,9.8449 C24.7348,9.8049 24.7638,9.7639 24.7958,9.7159 C24.8248,9.6739 24.8538,9.6299 24.8808,9.5869 L24.9048,9.5489 C24.9238,9.5189 24.9418,9.4879 24.9598,9.4569 L24.9868,9.4109 C25.0038,9.3799 25.0198,9.3509 25.0358,9.3199 L25.0588,9.2779 C25.0818,9.2339 25.1038,9.1899 25.1238,9.1449 C25.1448,9.0999 25.1648,9.0549 25.1828,9.0099 L25.1998,8.9669 C25.2128,8.9349 25.2238,8.9039 25.2358,8.8719 L25.2528,8.8229 C25.2628,8.7909 25.2728,8.7599 25.2828,8.7289 L25.2968,8.6829 C25.3068,8.6439 25.3178,8.6049 25.3268,8.5659 L25.3318,8.5439 C25.3428,8.4979 25.3528,8.4519 25.3618,8.4059 L25.3678,8.3619 C25.3738,8.3299 25.3788,8.2969 25.3838,8.2649 L25.3898,8.2119 C25.3938,8.1829 25.3968,8.1529 25.3998,8.1229 L25.4038,8.0699 C25.4068,8.0369 25.4078,8.0029 25.4088,7.9699 L25.4108,7.9289 C25.4118,7.8839 25.4128,7.8389 25.4118,7.7939 L25.4098,7.7459 C25.4088,7.7159 25.4078,7.6859 25.4058,7.6559 C25.4048,7.6359 25.4028,7.6179 25.4018,7.5969 C25.3988,7.5699 25.3968,7.5429 25.3938,7.5159 C25.3918,7.4969 25.3888,7.4759 25.3868,7.4569 C25.3838,7.4299 25.3798,7.4039 25.3748,7.3739 L25.3668,7.3189 C25.3588,7.2759 25.3508,7.2339 25.3418,7.1919 L25.3278,7.1349 C25.3228,7.1099 25.3158,7.0829 25.3098,7.0579 C25.3038,7.0389 25.2988,7.0189 25.2918,6.9939 C25.2848,6.9709 25.2788,6.9489 25.2718,6.9259 C25.2648,6.9049 25.2578,6.8819 25.2508,6.8599 L25.2328,6.8089 C25.2328,6.8089 25.2108,6.7479 25.2038,6.7299 L25.1778,6.6649 C25.1618,6.6239 25.1448,6.5849 25.1268,6.5469 L25.1008,6.4909 C25.0918,6.4699 25.0808,6.4509 25.0668,6.4209 C25.0578,6.4039 25.0488,6.3859 25.0388,6.3689 C25.0268,6.3449 25.0138,6.3229 25.0008,6.2999 L24.9698,6.2459 C24.9568,6.2239 24.9438,6.2029 24.9308,6.1809 L24.9028,6.1379 C24.8738,6.0919 24.8428,6.0469 24.8108,6.0029 L24.7848,5.9669 C24.7678,5.9449 24.7508,5.9219 24.7278,5.8919 L24.6998,5.8579 C24.6828,5.8359 24.6648,5.8149 24.6468,5.7939 L24.6108,5.7519 C24.5928,5.7319 24.5738,5.7099 24.5548,5.6909 L24.5188,5.6529 C24.4768,5.6099 24.4348,5.5679 24.3898,5.5269 L24.3778,5.5149 L24.3678,5.5059 L24.3678,5.5059 L24.3608,5.4989 L24.3598,5.4989 C24.1188,5.2819 23.8478,5.1009 23.5518,4.9629 C23.4848,4.9319 23.4098,4.9009 23.3248,4.8689 C22.9548,4.7289 22.5708,4.6579 22.1818,4.6579 L22.1648,4.6579 C21.4858,4.6619 20.8158,4.8849 20.2788,5.2889 C20.0098,5.4909 19.7788,5.7329 19.5898,6.0079 L19.5888,6.0069 L19.5888,6.0079 C19.4008,5.7339 19.1698,5.4909 18.8998,5.2889 C18.3578,4.8819 17.6808,4.6579 16.9948,4.6579 C16.5208,4.6579 16.0608,4.7599 15.6258,4.9629 C14.0308,5.7069 13.3248,7.5829 14.0538,9.1449" id="Fill-9" fill="#F87E7E" mask="url(#mask-4)"></path>
                                <rect id="Rectangle" fill="#F6F5F0" mask="url(#mask-4)" x="5" y="16.1232" width="30" height="1.5"></rect>
                                <path d="M21.5577,24.976 C21.5577,26.216 20.5497,27.225 19.3097,27.225 C18.0697,27.225 17.0607,26.216 17.0607,24.976 C17.0607,24.717 17.1137,24.472 17.1947,24.241 C17.5017,23.363 18.3287,22.728 19.3097,22.728 C20.2897,22.728 21.1177,23.363 21.4237,24.241 C21.5047,24.472 21.5577,24.717 21.5577,24.976 M19.3097,21.342 C17.5577,21.342 16.0917,22.588 15.7497,24.241 C15.7017,24.478 15.6747,24.724 15.6747,24.976 C15.6747,26.743 16.9427,28.216 18.6167,28.541 L18.6167,42.721 L15.7317,42.721 C13.5877,42.721 11.8497,44.458 11.8497,46.602 L11.8497,48 L26.7677,48 L26.7677,45.851 C26.7677,44.122 25.3677,42.721 23.6387,42.721 L20.0027,42.721 L20.0027,28.541 C21.6757,28.216 22.9437,26.743 22.9437,24.976 C22.9437,24.724 22.9177,24.478 22.8687,24.241 C22.5277,22.588 21.0617,21.342 19.3097,21.342" id="Fill-11" fill="#003B57" mask="url(#mask-4)"></path>
                            </g>
                        </g>
                    </g>
                </g>
            </g>
        </g>
    </g>
</svg>