<?xml version="1.0" encoding="utf-8"?>
<!-- Generator: Adobe Illustrator 23.0.1, SVG Export Plug-In . SVG Version: 6.00 Build 0)  -->
<svg version="1.1" id="Layer_1" xmlns="http://www.w3.org/2000/svg" xmlns:xlink="http://www.w3.org/1999/xlink" x="0px" y="0px"
	 viewBox="0 0 115 115" style="enable-background:new 0 0 115 115;" xml:space="preserve">
<style type="text/css">
	.st0{fill-rule:evenodd;clip-rule:evenodd;fill:#FFFFFF;}
	.st1{filter:url(#Adobe_OpacityMaskFilter);}
	.st2{mask:url(#mask-2_1_);fill-rule:evenodd;clip-rule:evenodd;fill:#FCD6D3;}
	.st3{fill-rule:evenodd;clip-rule:evenodd;fill:#F6F5F0;}
	.st4{fill-rule:evenodd;clip-rule:evenodd;fill:#F87E7E;}
	.st5{fill-rule:evenodd;clip-rule:evenodd;fill:#E8B7B6;}
	.st6{fill-rule:evenodd;clip-rule:evenodd;fill:#003B57;}
</style>
<title>Group 16</title>
<desc>Created with Sketch.</desc>
<g id="Page-1">
	<g id="Website-Landing" transform="translate(-237.000000, -1304.000000)">
		<g id="Group-11" transform="translate(161.000000, 1210.000000)">
			<g id="Group-16" transform="translate(76.000000, 94.000000)">
				<circle id="Oval" class="st0" cx="57.5" cy="57.5" r="57.5"/>
				<g id="Group-18" transform="translate(20.000000, 21.000000)">
					<g id="Group-3" transform="translate(0.000000, 0.808900)">
						<g id="Clip-2">
						</g>
						<defs>
							<filter id="Adobe_OpacityMaskFilter" filterUnits="userSpaceOnUse" x="0" y="0.2" width="74" height="67.4">
								<feColorMatrix  type="matrix" values="1 0 0 0 0  0 1 0 0 0  0 0 1 0 0  0 0 0 1 0"/>
							</filter>
						</defs>
						<mask maskUnits="userSpaceOnUse" x="0" y="0.2" width="74" height="67.4" id="mask-2_1_">
							<g class="st1">
								<polygon id="path-1_1_" class="st0" points="0,0.2 74,0.2 74,67.5 0,67.5 								"/>
							</g>
						</mask>
						<path id="Fill-1" class="st2" d="M0,52.4c-0.2-12,4.6-24.4,11.8-33.8C21.6,5.8,37.6-3.1,53.9,1.4c2.5,0.7,4.9,1.7,7.3,2.9
							c5.3,2.8,10,7.2,12,12.9c3.7,11-4.6,22.6-15.2,25.2c-4,1-8.2,1.3-12.2,2.5c-3.7,1.1-7.2,3.1-10.2,5.7
							c-3.2,2.8-5.7,6.5-8.8,9.5c-4.6,4.6-10.5,9.2-17.5,7C2.9,65,0.1,58.7,0,52.4"/>
					</g>
					<path id="Fill-4" class="st3" d="M21.2,50.8c0-2.8-2.2-5-5-5s-5,2.2-5,5c0,2.8,2.2,5,5,5S21.2,53.5,21.2,50.8"/>
					<path id="Fill-6" class="st4" d="M41.3,15.6c0-3.7-3-6.7-6.7-6.7C31,9,28,12,28,15.6s3,6.7,6.7,6.7
						C38.4,22.3,41.3,19.3,41.3,15.6"/>
					<path id="Fill-8" class="st5" d="M50.9,31.9c0-3.7-3-6.7-6.7-6.7s-6.7,3-6.7,6.7c0,3.7,3,6.7,6.7,6.7S50.9,35.6,50.9,31.9"/>
					<path id="Fill-10" class="st6" d="M61.7,14.2c0-3.7-3-6.7-6.7-6.7c-3.7,0-6.7,3-6.7,6.7s3,6.7,6.7,6.7
						C58.7,20.9,61.7,17.9,61.7,14.2"/>
					<path id="Fill-12" class="st6" d="M57.5,34.1l4.2,1.5L48.5,73.3c-0.3,0.9-1.4,1.4-2.3,1.1l-0.5-0.2c-1.1-0.4-1.7-1.6-1.3-2.7
						L57.5,34.1z"/>
					<path id="Fill-14" class="st6" d="M44.3,71.9c-0.4,1.2,0.2,2.4,1.4,2.8c1.2,0.4,2.4-0.2,2.8-1.4"/>
					<path id="Fill-16" class="st0" d="M57.3,34.6c-1.3-0.6-1.4-2.4-1-3.7c0.4-1.1,1.1-2,1.9-2.9c1.2-1.2,2.5-2.3,3.5-3.7
						c1-1.4,1.7-3,2.2-4.7c0.1,0.4,0.4,1.3,0.5,1.6c0.7,2.2,1.5,4.3,1.4,6.7c-0.1,2.2-0.8,4.4-2,6.3c-0.5,0.8-1.2,1.7-2.1,2.1
						c-0.5,0.3-1.1-0.1-1.6-0.4C59.2,35.5,58.3,35.1,57.3,34.6"/>
				</g>
			</g>
		</g>
	</g>
</g>
</svg>
