<?xml version="1.0" encoding="utf-8"?>
<!-- Generator: Adobe Illustrator 23.0.1, SVG Export Plug-In . SVG Version: 6.00 Build 0)  -->
<svg version="1.1" id="Layer_1" xmlns="http://www.w3.org/2000/svg" xmlns:xlink="http://www.w3.org/1999/xlink" x="0px" y="0px"
	 viewBox="0 0 115 115" style="enable-background:new 0 0 115 115;" xml:space="preserve">
<style type="text/css">
	.st0{fill-rule:evenodd;clip-rule:evenodd;fill:#FFFFFF;}
	.st1{filter:url(#Adobe_OpacityMaskFilter);}
	.st2{mask:url(#mask-2_1_);fill-rule:evenodd;clip-rule:evenodd;fill:#F87E7E;}
	.st3{fill-rule:evenodd;clip-rule:evenodd;fill:#336081;}
	.st4{fill-rule:evenodd;clip-rule:evenodd;fill:#003B57;}
	.st5{fill-rule:evenodd;clip-rule:evenodd;fill:#F8C4C2;}
</style>
<title>Group 19</title>
<desc>Created with Sketch.</desc>
<g id="Page-1">
	<g id="Website-Landing" transform="translate(-960.000000, -1304.000000)">
		<g id="Group-11" transform="translate(161.000000, 1210.000000)">
			<g id="Group-19" transform="translate(799.000000, 94.000000)">
				<circle id="Oval-Copy-2" class="st0" cx="57.5" cy="57.5" r="57.5"/>
				<g id="Group-14" transform="translate(16.000000, 31.000000)">
					<g id="Group-3" transform="translate(25.000000, 0.000000)">
						<g id="Clip-2">
						</g>
						<defs>
							<filter id="Adobe_OpacityMaskFilter" filterUnits="userSpaceOnUse" x="0.4" y="0.5" width="57.7" height="43.1">
								<feColorMatrix  type="matrix" values="1 0 0 0 0  0 1 0 0 0  0 0 1 0 0  0 0 0 1 0"/>
							</filter>
						</defs>
						<mask maskUnits="userSpaceOnUse" x="0.4" y="0.5" width="57.7" height="43.1" id="mask-2_1_">
							<g class="st1">
								<polygon id="path-1_1_" class="st0" points="0.4,0.5 58,0.5 58,43.6 0.4,43.6 								"/>
							</g>
						</mask>
						<path id="Fill-1" class="st2" d="M58,2.3v39.4c0,1-0.8,1.9-1.9,1.9H2.2c-1,0-1.9-0.8-1.9-1.9V2.3c0-1,0.8-1.9,1.9-1.9h53.9
							C57.2,0.5,58,1.3,58,2.3"/>
					</g>
					<path id="Fill-4" class="st0" d="M75.9,10H33.1C32.5,10,32,9.6,32,9s0.5-1,1.1-1h42.9C76.5,8,77,8.4,77,9S76.5,10,75.9,10"/>
					<path id="Fill-6" class="st0" d="M75.9,16H33.1c-0.6,0-1.1-0.4-1.1-1s0.5-1,1.1-1h42.9c0.6,0,1.1,0.4,1.1,1S76.5,16,75.9,16"/>
					<path id="Fill-8" class="st3" d="M54.1,53H0.9C0.4,53,0,52.6,0,52.1V20.9C0,20.4,0.4,20,0.9,20h53.3c0.5,0,0.9,0.4,0.9,0.9
						v31.2C55,52.6,54.6,53,54.1,53"/>
					<polyline id="Fill-10" class="st4" points="1,20 27.1,40 55,20 					"/>
					<path id="Fill-12" class="st5" d="M34,37.8c0,0,0-0.1,0-0.1c0,0,0,0,0-0.1c0,0,0-0.1,0-0.1c0,0,0-0.1,0-0.1c0,0,0-0.1,0-0.1
						l0-0.1c0-0.1,0-0.1,0-0.2l0-0.1c0,0,0-0.1,0-0.1c0,0,0,0,0-0.1c0,0,0-0.1,0-0.1c0,0,0-0.1,0-0.1l0-0.1c0,0,0-0.1,0-0.1l0-0.1
						c0,0,0-0.1-0.1-0.1l0-0.1c0,0,0,0,0-0.1c0,0,0,0,0-0.1c0,0,0-0.1,0-0.1l0-0.1c0,0,0-0.1-0.1-0.1l0-0.1c0-0.1-0.1-0.1-0.1-0.2
						l0,0c0,0,0-0.1-0.1-0.1l0,0c0,0,0-0.1-0.1-0.1l0-0.1c0,0,0-0.1-0.1-0.1l0,0c-0.1-0.1-0.1-0.1-0.2-0.2l0,0l0,0c0,0,0,0,0,0l0,0
						l0,0c-0.3-0.3-0.7-0.5-1-0.7c-0.1,0-0.2-0.1-0.3-0.1c-0.5-0.2-1-0.3-1.5-0.3h0c-0.9,0-1.7,0.3-2.4,0.8
						c-0.3,0.3-0.6,0.6-0.9,0.9l0,0l0,0c-0.2-0.3-0.5-0.6-0.9-0.9C24.9,34.3,24,34,23.2,34c-0.6,0-1.2,0.1-1.8,0.4
						c-2.1,0.9-3,3.3-2,5.2c1.1,2.3,4.7,4.3,6.2,5c0.5,0.2,0.8,0.4,0.9,0.4l0,0l0,0l0,0l0,0c0,0,0.4-0.2,0.9-0.4
						c1-0.5,2.6-1.3,3.9-2.4c0.5-0.4,1-0.8,1.3-1.2v0l0,0c0-0.1,0.1-0.1,0.1-0.2l0,0c0,0,0.1-0.1,0.1-0.1l0,0c0,0,0.1-0.1,0.1-0.1
						l0,0c0-0.1,0.1-0.1,0.1-0.2c0-0.1,0.1-0.1,0.1-0.2l0,0c0,0,0-0.1,0.1-0.1l0-0.1c0,0,0-0.1,0.1-0.1l0-0.1c0-0.1,0.1-0.1,0.1-0.2
						c0-0.1,0.1-0.1,0.1-0.2l0-0.1c0,0,0-0.1,0-0.1l0-0.1c0,0,0-0.1,0-0.1l0-0.1c0,0,0-0.1,0-0.1l0,0c0-0.1,0-0.1,0-0.2l0-0.1
						c0,0,0-0.1,0-0.1l0-0.1c0,0,0-0.1,0-0.1l0-0.1c0,0,0-0.1,0-0.1l0,0C34,38,34,38,34,37.8L34,37.8z"/>
				</g>
			</g>
		</g>
	</g>
</g>
</svg>
